<?xml version="1.0" encoding="utf-8"?>
<!DOCTYPE svg PUBLIC "-//W3C//DTD SVG 20010904//EN" "http://www.w3.org/TR/2001/REC-SVG-20010904/DTD/svg10.dtd">
<svg version="1.0" xmlns="http://www.w3.org/2000/svg" width="130pt" height="130pt" viewBox="0 0 130 130" style="" preserveAspectRatio="xMidYMid meet">
<g fill="#FC33B4FF" stroke="#FC33B4FF">
<path d="M 58.834 52.124 C 54.932 53.845 53.827 54.975 52.084 59.027 C 49.522 64.983 49.522 65.017 52.086 70.979 C 53.861 75.104 54.896 76.139 59.021 77.914 C 64.983 80.479 65.017 80.479 70.979 77.914 C 75.104 76.139 76.139 75.104 77.914 70.979 C 80.479 65.017 80.479 64.983 77.914 59.021 C 76.139 54.896 75.104 53.861 70.979 52.086 C 65.072 49.545 64.676 49.547 58.834 52.124 "/></g>
<g fill="#FC33B4FF" stroke="#FC33B4FF">
<path d="M 59.061 120.049 L 53.622 122.800 57.021 124.866 C 61.984 127.885 65.288 128.324 69.570 126.535 C 76.593 123.601 76.660 122.980 70.287 119.869 C 67.104 118.316 64.500 117.102 64.500 117.171 C 64.500 117.241 62.052 118.536 59.061 120.049 "/></g>
<g fill="#FC33B4FF" stroke="#FC33B4FF">
<path d="M 119.924 59.611 L 117.361 65.039 120.092 70.689 L 122.823 76.340 124.878 72.960 C 128.066 67.717 128.370 64.625 126.182 59.678 C 125.107 57.247 123.835 55.016 123.357 54.721 C 122.879 54.425 121.334 56.626 119.924 59.611 "/></g>
<g fill="#FC33B4FF" stroke="#FC33B4FF">
<path d="M 5.122 57.040 C 2.115 61.984 1.678 65.293 3.465 69.570 C 6.381 76.551 7.029 76.647 9.982 70.537 L 12.658 65.000 9.918 59.330 L 7.177 53.660 5.122 57.040 "/></g>
<g fill="#FC33B4FF" stroke="#FC33B4FF">
<path d="M 60.069 3.567 C 53.477 6.427 53.418 7.060 59.463 9.982 L 65.000 12.658 70.537 9.982 C 76.624 7.040 76.539 6.377 69.705 3.521 C 65.275 1.670 64.431 1.674 60.069 3.567 "/></g>
<g fill="#FC33B4FF" stroke="#FC33B4FF">
<path d="M 107.760 99.957 C 105.153 100.886 102.725 101.942 102.363 102.304 C 101.541 103.125 98.038 113.372 98.441 113.774 C 98.604 113.937 101.248 113.131 104.316 111.983 C 109.606 110.004 110.002 109.611 111.948 104.410 C 114.757 96.901 115.153 97.322 107.760 99.957 "/></g>
<g fill="#FC33B4FF" stroke="#FC33B4FF">
<path d="M 16.000 98.462 C 16.000 98.717 16.924 101.393 18.052 104.410 C 19.998 109.611 20.394 110.004 25.684 111.983 C 28.752 113.131 31.396 113.937 31.559 113.774 C 31.953 113.380 28.467 103.134 27.667 102.333 C 27.322 101.988 24.668 100.887 21.770 99.886 C 15.689 97.785 16.000 97.862 16.000 98.462 "/></g>
<g fill="#FC33B4FF" stroke="#FC33B4FF">
<path d="M 98.033 16.250 C 98.193 17.475 101.850 27.183 102.333 27.667 C 103.134 28.467 113.380 31.953 113.774 31.559 C 113.937 31.396 113.131 28.752 111.983 25.684 C 110.004 20.394 109.611 19.998 104.410 18.052 C 99.052 16.048 97.966 15.741 98.033 16.250 "/></g>
<g fill="#FC33B4FF" stroke="#FC33B4FF">
<path d="M 25.303 18.102 C 20.448 19.969 19.969 20.467 18.018 25.682 C 16.869 28.751 16.063 31.396 16.226 31.559 C 16.620 31.953 26.866 28.467 27.667 27.667 C 28.150 27.183 31.807 17.475 31.967 16.250 C 32.039 15.701 30.266 16.194 25.303 18.102 "/></g>
<g fill="#FC33B4FF" stroke="#FC33B4FF">
<path d="M 76.765 105.949 L 74.029 109.985 77.467 111.422 C 84.155 114.216 85.268 113.939 87.977 108.810 C 89.339 106.231 90.188 103.855 89.863 103.529 C 89.537 103.204 87.073 102.707 84.386 102.426 C 79.590 101.923 79.450 101.988 76.765 105.949 "/></g>
<g fill="#FC33B4FF" stroke="#FC33B4FF">
<path d="M 42.250 102.706 C 39.434 103.248 39.445 104.467 42.311 109.500 C 44.799 113.867 46.096 114.111 52.533 111.422 L 55.971 109.985 53.235 106.031 C 50.437 101.985 48.708 101.462 42.250 102.706 "/></g>
<g fill="#FC33B4FF" stroke="#FC33B4FF">
<path d="M 105.706 76.880 C 102.019 79.426 101.926 79.639 102.425 84.386 C 102.707 87.073 103.172 89.506 103.459 89.792 C 104.111 90.444 111.695 87.077 112.911 85.596 C 113.768 84.552 111.643 76.292 110.154 74.880 C 109.794 74.539 107.793 75.439 105.706 76.880 "/></g>
<g fill="#FC33B4FF" stroke="#FC33B4FF">
<path d="M 18.578 77.467 C 15.784 84.155 16.061 85.268 21.190 87.977 C 23.769 89.339 26.145 90.188 26.471 89.863 C 26.796 89.537 27.293 87.073 27.574 84.386 C 28.077 79.590 28.012 79.450 24.051 76.765 L 20.015 74.029 18.578 77.467 "/></g>
<g fill="#FC33B4FF" stroke="#FC33B4FF">
<path d="M 102.625 43.125 C 101.458 48.961 101.946 50.410 106.031 53.235 L 109.985 55.971 111.422 52.533 C 114.111 46.096 113.867 44.799 109.500 42.311 C 104.228 39.309 103.368 39.410 102.625 43.125 "/></g>
<g fill="#FC33B4FF" stroke="#FC33B4FF">
<path d="M 20.500 42.311 C 16.133 44.799 15.889 46.096 18.578 52.533 L 20.015 55.971 23.969 53.235 C 28.054 50.410 28.542 48.961 27.375 43.125 C 26.632 39.410 25.772 39.309 20.500 42.311 "/></g>
<g fill="#FC33B4FF" stroke="#FC33B4FF">
<path d="M 82.000 17.029 C 80.625 17.438 78.260 18.265 76.744 18.864 L 73.987 19.955 76.744 24.021 C 79.452 28.016 79.585 28.078 84.386 27.574 C 87.073 27.293 89.506 26.828 89.792 26.541 C 90.452 25.881 87.058 18.274 85.596 17.136 C 84.993 16.667 83.375 16.619 82.000 17.029 "/></g>
<g fill="#FC33B4FF" stroke="#FC33B4FF">
<path d="M 43.553 18.314 C 41.340 21.749 39.624 25.958 40.202 26.535 C 40.492 26.825 42.927 27.293 45.614 27.574 C 50.415 28.078 50.548 28.016 53.256 24.021 L 56.013 19.955 53.256 18.871 C 46.195 16.092 45.028 16.025 43.553 18.314 "/></g>
<g fill="#FC33B4FF" stroke="#FC33B4FF">
<path d="M 62.559 96.333 C 60.817 97.607 60.813 97.785 62.483 100.333 C 64.666 103.665 65.334 103.665 67.517 100.333 C 69.187 97.785 69.183 97.607 67.441 96.333 C 65.178 94.679 64.822 94.679 62.559 96.333 "/></g>
<g fill="#FC33B4FF" stroke="#FC33B4FF">
<path d="M 87.853 85.676 C 86.160 86.119 84.697 89.701 85.607 91.174 C 85.888 91.628 87.470 92.000 89.122 92.000 C 91.896 92.000 92.103 91.756 91.813 88.827 C 91.491 85.559 90.700 84.930 87.853 85.676 "/></g>
<g fill="#FC33B4FF" stroke="#FC33B4FF">
<path d="M 38.678 85.656 C 38.305 86.028 38.000 87.637 38.000 89.230 C 38.000 91.896 38.259 92.102 41.250 91.813 C 44.033 91.545 44.461 91.150 44.228 89.062 C 44.079 87.721 43.854 86.539 43.728 86.436 C 42.781 85.658 39.224 85.109 38.678 85.656 "/></g>
<g fill="#FC33B4FF" stroke="#FC33B4FF">
<path d="M 96.000 63.000 C 95.240 64.421 95.240 65.579 96.000 67.000 C 97.321 69.468 97.855 69.466 101.000 66.978 L 103.500 65.000 101.000 63.022 C 97.855 60.534 97.321 60.532 96.000 63.000 "/></g>
<g fill="#FC33B4FF" stroke="#FC33B4FF">
<path d="M 29.000 63.022 L 26.500 65.000 29.000 66.978 C 32.145 69.466 32.679 69.468 34.000 67.000 C 34.760 65.579 34.760 64.421 34.000 63.000 C 32.679 60.532 32.145 60.534 29.000 63.022 "/></g>
<g fill="#FC33B4FF" stroke="#FC33B4FF">
<path d="M 85.607 38.826 C 84.602 40.453 86.223 43.825 88.266 44.359 C 91.161 45.116 92.000 44.348 92.000 40.941 C 92.000 38.353 91.647 38.000 89.059 38.000 C 87.441 38.000 85.888 38.372 85.607 38.826 "/></g>
<g fill="#FC33B4FF" stroke="#FC33B4FF">
<path d="M 38.182 41.182 C 38.455 44.036 38.841 44.462 40.938 44.228 C 43.930 43.895 43.895 43.930 44.228 40.938 C 44.462 38.841 44.036 38.455 41.182 38.182 C 37.973 37.874 37.874 37.973 38.182 41.182 "/></g>
<g fill="#FC33B4FF" stroke="#FC33B4FF">
<path d="M 62.483 29.667 C 60.813 32.215 60.817 32.393 62.559 33.667 C 63.562 34.400 64.660 35.000 65.000 35.000 C 65.340 35.000 66.438 34.400 67.441 33.667 C 69.183 32.393 69.187 32.215 67.517 29.667 C 66.556 28.200 65.423 27.000 65.000 27.000 C 64.577 27.000 63.444 28.200 62.483 29.667 "/></g>
<g fill="#FC33B4FF" stroke="#FC33B4FF">
<path d="M 73.192 87.075 C 73.389 87.666 73.978 88.150 74.500 88.150 C 75.023 88.150 75.611 87.666 75.808 87.075 C 76.005 86.484 75.417 86.000 74.500 86.000 C 73.583 86.000 72.995 86.484 73.192 87.075 "/></g>
<g fill="#FC33B4FF" stroke="#FC33B4FF">
<path d="M 54.192 87.075 C 54.389 87.666 54.978 88.150 55.500 88.150 C 56.023 88.150 56.611 87.666 56.808 87.075 C 57.005 86.484 56.417 86.000 55.500 86.000 C 54.583 86.000 53.995 86.484 54.192 87.075 "/></g>
<g fill="#FC33B4FF" stroke="#FC33B4FF">
<path d="M 86.000 74.500 C 86.000 75.417 86.484 76.005 87.075 75.808 C 87.666 75.611 88.150 75.023 88.150 74.500 C 88.150 73.978 87.666 73.389 87.075 73.192 C 86.484 72.995 86.000 73.583 86.000 74.500 "/></g>
<g fill="#FC33B4FF" stroke="#FC33B4FF">
<path d="M 41.694 73.639 C 40.895 74.438 41.798 76.000 43.059 76.000 C 43.577 76.000 44.000 75.325 44.000 74.500 C 44.000 72.954 42.820 72.513 41.694 73.639 "/></g>
<g fill="#FC33B4FF" stroke="#FC33B4FF">
<path d="M 86.000 55.500 C 86.000 56.417 86.484 57.005 87.075 56.808 C 87.666 56.611 88.150 56.023 88.150 55.500 C 88.150 54.978 87.666 54.389 87.075 54.192 C 86.484 53.995 86.000 54.583 86.000 55.500 "/></g>
<g fill="#FC33B4FF" stroke="#FC33B4FF">
<path d="M 41.694 54.639 C 40.895 55.438 41.798 57.000 43.059 57.000 C 43.577 57.000 44.000 56.325 44.000 55.500 C 44.000 53.954 42.820 53.513 41.694 54.639 "/></g>
<g fill="#FC33B4FF" stroke="#FC33B4FF">
<path d="M 73.639 41.694 C 72.513 42.820 72.954 44.000 74.500 44.000 C 75.325 44.000 76.000 43.577 76.000 43.059 C 76.000 41.798 74.438 40.895 73.639 41.694 "/></g>
<g fill="#FC33B4FF" stroke="#FC33B4FF">
<path d="M 54.639 41.694 C 53.513 42.820 53.954 44.000 55.500 44.000 C 56.325 44.000 57.000 43.577 57.000 43.059 C 57.000 41.798 55.438 40.895 54.639 41.694 "/></g>
</svg>
